<svg width="20" height="20" viewBox="0 0 20 20" fill="none" xmlns="http://www.w3.org/2000/svg">
<path fill-rule="evenodd" clip-rule="evenodd" d="M8.81344 19.5378C7.1263 20.2499 5.24947 20.1349 3.66416 19.2222C2.08784 18.3148 1.05289 16.7608 0.824651 14.9589C0.391783 11.6727 0.391783 8.32732 0.824651 5.04106C1.05289 3.23924 2.08784 1.68528 3.66416 0.777754C5.24947 -0.13491 7.1263 -0.249926 8.81344 0.462243C11.8124 1.72798 14.6678 3.33131 17.3007 5.22759C18.8435 6.33898 19.728 8.1111 19.6993 9.99999C19.728 11.8889 18.8435 13.6611 17.3007 14.7724C14.6678 16.6688 11.8124 18.272 8.81344 19.5378ZM2.8088 14.7076C2.95823 15.8874 3.62742 16.8934 4.66198 17.4889C5.70439 18.089 6.92421 18.1644 8.03574 17.6952C10.8969 16.4876 13.621 14.958 16.1317 13.1496C17.1422 12.4217 17.7183 11.2676 17.6996 10.0303L17.6991 9.99999L17.6996 9.96964C17.7183 8.73243 17.1424 7.57852 16.1319 6.85047C13.6211 5.04218 10.8968 3.51236 8.03567 2.30481C6.92419 1.83564 5.70445 1.91092 4.66205 2.51102C3.62743 3.10669 2.95822 4.11275 2.8088 5.29239L2.80752 5.30224C2.39749 8.41514 2.39749 11.5849 2.80752 14.6977L2.8088 14.7076Z" fill="#0072DA"/>
</svg>
