<svg width="61" height="25" viewBox="0 0 61 25" fill="none" xmlns="http://www.w3.org/2000/svg">
<path d="M16.0897 6.46331C14.4873 5.4475 12.5137 5.31075 10.7745 6.07261C7.9215 7.32284 5.20527 8.90517 2.70401 10.761C1.29704 11.7963 0.476318 13.3787 0.476318 15.1173C0.476318 16.8363 1.27753 18.3991 2.66495 19.4345C5.14667 21.2708 7.82379 22.8335 10.6768 24.1033L11.6148 20.2354C9.30894 19.161 7.12031 17.8521 5.08803 16.348C4.54088 15.9377 4.46273 15.4103 4.46273 15.1173C4.46273 14.6289 4.69722 14.1601 5.10759 13.867C7.37436 12.187 9.83652 10.761 12.416 9.62796C13.139 9.3154 13.7252 9.60843 13.9402 9.74517C14.1551 9.88191 14.6632 10.2921 14.6632 11.054V23.947H18.6301V11.054C18.6301 9.19819 17.6921 7.49866 16.0897 6.48284" fill="#0072DA"/>
<path d="M58.0646 10.7417C55.5633 8.8859 52.8471 7.32311 49.9941 6.07288L49.9355 6.19009L49.0366 9.92126C51.3815 10.9957 53.6092 12.324 55.661 13.8478C56.0714 14.1408 56.3059 14.6096 56.3059 15.098C56.3059 15.391 56.2277 15.9185 55.6806 16.3287C53.4138 18.0087 50.9516 19.4347 48.3722 20.5678C47.6492 20.8803 47.0434 20.6068 46.8284 20.4506C46.6135 20.3138 46.1054 19.9036 46.1054 19.1417V0.134277H42.119V19.1417C42.119 20.9975 43.0766 22.6971 44.6789 23.7129C45.5974 24.2989 46.6526 24.592 47.7078 24.592C48.4894 24.592 49.2711 24.4357 50.0137 24.1036C52.8862 22.8338 55.6024 21.2515 58.0842 19.4152C59.4716 18.3799 60.2728 16.7975 60.2728 15.098C60.2728 13.3789 59.452 11.7966 58.0451 10.7417" fill="#0072DA"/>
<path d="M39.0113 23.9077H35.0445V12.8314C35.0445 10.9756 33.4812 9.45189 31.5857 9.45189H25.8992V23.9077H21.9324V9.41282C21.9324 7.28352 23.6911 5.56445 25.8797 5.56445H31.6052C35.7089 5.56445 39.0504 8.82677 39.0504 12.8314V23.9077H39.0113Z" fill="#0072DA"/>
</svg>
