<svg width="15" height="16" viewBox="0 0 15 16" fill="none" xmlns="http://www.w3.org/2000/svg">
<path fill-rule="evenodd" clip-rule="evenodd" d="M12.0347 1.24976C11.813 1.2497 11.5936 1.29331 11.3888 1.37807C11.184 1.46282 10.998 1.58706 10.8413 1.74369C10.8412 1.74373 10.8413 1.74366 10.8413 1.74369L2.63627 9.94869C2.10882 10.4761 1.8125 11.1915 1.8125 11.9374C1.8125 12.6834 2.10882 13.3987 2.63627 13.9262C3.16372 14.4536 3.87909 14.75 4.62502 14.75C5.37095 14.75 6.08632 14.4536 6.61377 13.9262L12.3835 8.15645C12.6032 7.93678 12.9593 7.93678 13.179 8.15645C13.3987 8.37612 13.3987 8.73228 13.179 8.95194L7.40927 14.7217C6.67084 15.4601 5.66932 15.875 4.62502 15.875C3.58073 15.875 2.5792 15.4601 1.84077 14.7217C1.10234 13.9833 0.6875 12.9817 0.6875 11.9374C0.6875 10.8932 1.10234 9.89163 1.84077 9.1532L10.0458 0.948199C10.307 0.687078 10.6172 0.479876 10.9585 0.338606C11.2998 0.197335 11.6656 0.124669 12.0349 0.124756C12.4043 0.124843 12.77 0.197681 13.1113 0.339113C13.4525 0.480545 13.7625 0.6878 14.0236 0.949043C14.2847 1.21029 14.4918 1.5204 14.6331 1.86169C14.7744 2.20298 14.847 2.56874 14.847 2.93811C14.8469 3.30748 14.774 3.67321 14.6326 4.01443C14.4912 4.35561 14.284 4.66559 14.0228 4.92669C14.0227 4.92673 14.0228 4.92666 14.0228 4.92669L5.81177 13.1377C5.80153 13.1479 5.79099 13.1577 5.78018 13.167C5.46333 13.4595 5.04611 13.6199 4.6141 13.6145C4.17151 13.6089 3.74884 13.4296 3.43719 13.1153C3.12553 12.801 2.94985 12.3768 2.948 11.9342C2.94615 11.4915 3.11828 11.0659 3.42729 10.749L3.43224 10.7439L9.28977 4.88645C9.50944 4.66678 9.8656 4.66678 10.0853 4.88645C10.3049 5.10612 10.3049 5.46227 10.0853 5.68194L4.23071 11.5365C4.12899 11.6419 4.07238 11.7829 4.07299 11.9295C4.07361 12.077 4.13217 12.2184 4.23605 12.3232C4.33994 12.4279 4.48083 12.4877 4.62836 12.4896C4.77424 12.4914 4.91507 12.4365 5.02118 12.3365L5.02302 12.3347C5.02886 12.3289 5.0348 12.3232 5.04083 12.3176L13.2273 4.1312C13.384 3.97452 13.5085 3.7884 13.5933 3.58367C13.6782 3.37893 13.7219 3.15948 13.722 2.93784C13.722 2.71621 13.6784 2.49674 13.5936 2.29196C13.5089 2.08718 13.3846 1.90111 13.2279 1.74435C13.0712 1.5876 12.8852 1.46324 12.6805 1.37838C12.4757 1.29351 12.2563 1.24981 12.0347 1.24976Z" fill="#0071DA"/>
</svg>
