<svg width="24" height="24" viewBox="0 0 24 24" fill="none" xmlns="http://www.w3.org/2000/svg">
<rect x="0.5" y="0.5" width="23" height="23" rx="3.5" stroke="#0071DA"/>
<path fill-rule="evenodd" clip-rule="evenodd" d="M18.7399 8.37279C18.8962 8.52904 18.9743 8.71878 18.9743 8.94199C18.9743 9.1652 18.8962 9.35494 18.7399 9.51118L12.6797 15.5714L11.5413 16.7098C11.385 16.8661 11.1953 16.9442 10.9721 16.9442C10.7489 16.9442 10.5592 16.8661 10.4029 16.7098L9.26451 15.5714L6.23438 12.5413C6.07812 12.385 6 12.1953 6 11.9721C6 11.7489 6.07812 11.5592 6.23438 11.4029L7.37277 10.2645C7.52902 10.1083 7.71875 10.0301 7.94196 10.0301C8.16518 10.0301 8.35491 10.1083 8.51116 10.2645L10.9721 12.7338L16.4632 7.23438C16.6194 7.07812 16.8091 7 17.0323 7C17.2556 7 17.4453 7.07812 17.6015 7.23438L18.7399 8.37279Z"/>
</svg>
