<svg width="13" height="10" viewBox="0 0 13 10" fill="none" xmlns="http://www.w3.org/2000/svg">
<path fill-rule="evenodd" clip-rule="evenodd" d="M12.7399 1.37279C12.8962 1.52904 12.9743 1.71878 12.9743 1.94199C12.9743 2.1652 12.8962 2.35494 12.7399 2.51118L6.67969 8.57143L5.5413 9.70983C5.38505 9.86608 5.19531 9.94421 4.9721 9.94421C4.74889 9.94421 4.55915 9.86608 4.4029 9.70983L3.26451 8.57143L0.234375 5.5413C0.078125 5.38505 0 5.19532 0 4.97211C0 4.74889 0.078125 4.55916 0.234375 4.40291L1.37277 3.26451C1.52902 3.10826 1.71875 3.03014 1.94196 3.03014C2.16518 3.03014 2.35491 3.10826 2.51116 3.26451L4.9721 5.73383L10.4632 0.234375C10.6194 0.078125 10.8091 0 11.0323 0C11.2556 0 11.4453 0.078125 11.6015 0.234375L12.7399 1.37279Z" fill="#0072DA"/>
</svg>
