<svg width="9" height="9" viewBox="0 0 9 9" fill="none" xmlns="http://www.w3.org/2000/svg">
<path fill-rule="evenodd" clip-rule="evenodd" d="M4.21323 0.729655C2.27849 0.729655 1.00871 2.34788 1.00871 4.17721C1.17447 4.09247 1.36226 4.04468 1.56121 4.04468C2.23252 4.04468 2.77672 4.58888 2.77672 5.26018V6.14419C2.77672 6.8155 2.23252 7.3597 1.56121 7.3597C0.889905 7.3597 0.345703 6.8155 0.345703 6.14419V3.93418C0.345703 1.7982 2.07725 0.0666504 4.21323 0.0666504C6.3492 0.0666504 8.08075 1.7982 8.08075 3.93418V6.14419C8.08075 6.71636 7.68542 7.1962 7.15299 7.32544C7.02884 7.73723 6.65609 8.05266 6.23674 8.26233C5.70175 8.52983 4.98587 8.68571 4.21323 8.68571C4.03015 8.68571 3.88173 8.53729 3.88173 8.35421C3.88173 8.17112 4.03015 8.0227 4.21323 8.0227C4.90526 8.0227 5.51538 7.88175 5.94024 7.66932C6.19425 7.54231 6.35173 7.40764 6.44007 7.28326C5.97845 7.11088 5.64974 6.66593 5.64974 6.14419V5.26018C5.64974 4.58888 6.19394 4.04468 6.86525 4.04468C7.0642 4.04468 7.25198 4.09247 7.41775 4.17721C7.41775 2.34788 6.14797 0.729655 4.21323 0.729655ZM6.86525 6.69669C7.17039 6.69669 7.41775 6.44933 7.41775 6.14419V5.26018C7.41775 4.95505 7.17039 4.70768 6.86525 4.70768C6.56011 4.70768 6.31274 4.95505 6.31274 5.26018V6.14419C6.31274 6.44933 6.56011 6.69669 6.86525 6.69669ZM1.00871 6.14419V5.26018C1.00871 4.95505 1.25607 4.70768 1.56121 4.70768C1.86635 4.70768 2.11371 4.95505 2.11371 5.26018V6.14419C2.11371 6.44933 1.86635 6.69669 1.56121 6.69669C1.25607 6.69669 1.00871 6.44933 1.00871 6.14419Z" fill="#0072DA"/>
</svg>
