<svg width="20" height="20" viewBox="0 0 20 20" fill="none" xmlns="http://www.w3.org/2000/svg">
<path  d="M4.75 0.25C5.16421 0.25 5.5 0.585786 5.5 1V2.5H14.5V1C14.5 0.585786 14.8358 0.25 15.25 0.25C15.6642 0.25 16 0.585786 16 1V2.5H16.75C17.5457 2.5 18.3087 2.81607 18.8713 3.37868C19.4339 3.94129 19.75 4.70435 19.75 5.5V16.75C19.75 17.5457 19.4339 18.3087 18.8713 18.8713C18.3087 19.4339 17.5457 19.75 16.75 19.75H3.25C2.45435 19.75 1.69129 19.4339 1.12868 18.8713C0.566071 18.3087 0.25 17.5456 0.25 16.75V5.5C0.25 4.70435 0.566071 3.94129 1.12868 3.37868C1.69129 2.81607 2.45435 2.5 3.25 2.5H4V1C4 0.585786 4.33579 0.25 4.75 0.25ZM3.25 4C2.85218 4 2.47064 4.15804 2.18934 4.43934C1.90804 4.72064 1.75 5.10218 1.75 5.5V6.65192C2.20218 6.39087 2.71883 6.25 3.25 6.25H16.75C17.2812 6.25 17.7978 6.39087 18.25 6.65192V5.5C18.25 5.10218 18.092 4.72064 17.8107 4.43934C17.5294 4.15804 17.1478 4 16.75 4H3.25ZM18.25 9.25C18.25 8.85218 18.092 8.47064 17.8107 8.18934C17.5294 7.90804 17.1478 7.75 16.75 7.75H3.25C2.85218 7.75 2.47064 7.90804 2.18934 8.18934C1.90804 8.47064 1.75 8.85217 1.75 9.25V16.75C1.75 17.1478 1.90804 17.5294 2.18934 17.8107C2.47064 18.092 2.85218 18.25 3.25 18.25H16.75C17.1478 18.25 17.5294 18.092 17.8107 17.8107C18.092 17.5294 18.25 17.1478 18.25 16.75V9.25Z" />
</svg>
