<svg width="22" height="21" viewBox="0 0 22 21" fill="none" xmlns="http://www.w3.org/2000/svg">
<path fill-rule="evenodd" clip-rule="evenodd" d="M10.9988 3.6087C9.09414 3.60575 7.23076 4.1636 5.64106 5.21268C5.29534 5.44083 4.83013 5.34552 4.60198 4.9998C4.37383 4.65408 4.46914 4.18887 4.81486 3.96072C6.65024 2.74952 8.80155 2.10541 11.0005 2.1087C16.0971 2.10896 20.3997 5.49764 21.7837 10.1425C21.8254 10.2825 21.8254 10.4316 21.7836 10.5715C21.025 13.1096 19.3967 15.2996 17.1846 16.757C16.8387 16.9849 16.3735 16.8892 16.1457 16.5433C15.9178 16.1974 16.0134 15.7323 16.3593 15.5044C18.2145 14.2821 19.596 12.4656 20.2796 10.3564C19.0129 6.44016 15.3363 3.6087 11 3.6087L10.9988 3.6087ZM3.46479 6.00948C3.78082 6.27725 3.81995 6.75051 3.55218 7.06653C2.73199 8.03457 2.10958 9.15314 1.71929 10.3589C2.98587 14.2771 6.66346 17.1087 11 17.1087C11.9231 17.1087 12.8146 16.9805 13.6591 16.7419C14.0577 16.6294 14.4721 16.8612 14.5847 17.2599C14.6973 17.6585 14.4654 18.0729 14.0668 18.1855C13.0914 18.461 12.0628 18.6087 11 18.6087C5.90312 18.6087 1.59924 15.2199 0.215163 10.5728C0.173521 10.433 0.17356 10.284 0.215274 10.1443C0.658713 8.65818 1.40522 7.28009 2.40774 6.09687C2.6755 5.78084 3.14876 5.74172 3.46479 6.00948ZM9.5653 6.89442C10.0203 6.70595 10.508 6.60895 11.0005 6.60895C11.4929 6.60895 11.9806 6.70595 12.4356 6.89442C12.8906 7.08289 13.304 7.35913 13.6523 7.70737C14.0005 8.05562 14.2768 8.46904 14.4652 8.92404C14.6537 9.37905 14.7507 9.86671 14.7507 10.3592C14.7507 10.8517 14.6537 11.3394 14.4652 11.7944C14.2768 12.2494 14.0005 12.6628 13.6523 13.011C13.3594 13.3039 12.8845 13.3039 12.5916 13.011C12.2987 12.7181 12.2987 12.2433 12.5916 11.9504C12.8006 11.7414 12.9663 11.4934 13.0794 11.2203C13.1925 10.9473 13.2507 10.6547 13.2507 10.3592C13.2507 10.0637 13.1925 9.77108 13.0794 9.49807C12.9663 9.22505 12.8006 8.97699 12.5916 8.76803C12.3827 8.55908 12.1346 8.39333 11.8616 8.28024C11.5886 8.16715 11.296 8.10895 11.0005 8.10895C10.705 8.10895 10.4123 8.16715 10.1393 8.28024C9.86631 8.39333 9.61825 8.55908 9.40929 8.76803C9.1164 9.06093 8.64152 9.06093 8.34863 8.76803C8.05574 8.47514 8.05574 8.00027 8.34863 7.70737C8.69687 7.35913 9.1103 7.08289 9.5653 6.89442Z"/>
<path fill-rule="evenodd" clip-rule="evenodd" d="M1.46963 0.828374C1.76252 0.53548 2.2374 0.53548 2.53029 0.828374L20.5303 18.8284C20.8232 19.1213 20.8232 19.5961 20.5303 19.889C20.2374 20.1819 19.7625 20.1819 19.4696 19.889L1.46963 1.88903C1.17674 1.59614 1.17674 1.12127 1.46963 0.828374Z" />
</svg>
