<svg width="22" height="18" viewBox="0 0 22 18" fill="none" xmlns="http://www.w3.org/2000/svg">
<path fill-rule="evenodd" clip-rule="evenodd" d="M11.0001 2.25C6.69265 2.25 3.03594 5.04402 1.74781 8.91956C1.73197 8.96718 1.7301 9.01845 1.74236 9.06685C1.74452 9.07282 1.74661 9.07883 1.74863 9.08488C3.03964 12.9588 6.69458 15.75 11.0001 15.75C15.3076 15.75 18.9642 12.956 20.2513 9.0806L20.2523 9.07778C20.2702 9.02461 20.2698 8.96905 20.2526 8.91826L20.2516 8.91512C18.9606 5.04115 15.3056 2.25 11.0001 2.25ZM0.324454 8.44622C1.81039 3.97587 6.02762 0.75 11.0001 0.75C15.9706 0.75 20.1856 3.97285 21.6746 8.44088C21.7962 8.80274 21.7957 9.19342 21.6744 9.55481C20.1891 14.0247 15.9721 17.25 11.0001 17.25C6.04328 17.25 1.83775 14.0449 0.337915 9.59596C0.333125 9.58374 0.328634 9.57135 0.324454 9.55878C0.204323 9.19774 0.204374 8.80728 0.324454 8.44622Z" />
<path fill-rule="evenodd" clip-rule="evenodd" d="M11.0001 6.75C10.4034 6.75 9.83106 6.98705 9.40911 7.40901C8.98715 7.83097 8.7501 8.40326 8.7501 9C8.7501 9.59674 8.98715 10.169 9.40911 10.591C9.83106 11.0129 10.4034 11.25 11.0001 11.25C11.5968 11.25 12.1691 11.0129 12.5911 10.591C13.013 10.169 13.2501 9.59674 13.2501 9C13.2501 8.40326 13.013 7.83097 12.5911 7.40901C12.1691 6.98705 11.5968 6.75 11.0001 6.75ZM8.34844 6.34835C9.05171 5.64509 10.0055 5.25 11.0001 5.25C11.9947 5.25 12.9485 5.64509 13.6517 6.34835C14.355 7.05161 14.7501 8.00544 14.7501 9C14.7501 9.99456 14.355 10.9484 13.6517 11.6517C12.9485 12.3549 11.9947 12.75 11.0001 12.75C10.0055 12.75 9.05171 12.3549 8.34844 11.6517C7.64518 10.9484 7.2501 9.99456 7.2501 9C7.2501 8.00544 7.64518 7.05161 8.34844 6.34835Z" />
</svg>
