<svg width="22" height="20" viewBox="0 0 22 20" fill="none" xmlns="http://www.w3.org/2000/svg">
<path fill-rule="evenodd" clip-rule="evenodd"  d="M10.5001 1.62077C10.3013 1.62077 10.1107 1.69966 9.97008 1.84011L1.28008 10.5301C1.13869 10.6668 0.949277 10.7425 0.752628 10.7409C0.555979 10.7393 0.367831 10.6605 0.228709 10.5215C0.0895869 10.3825 0.0106215 10.1944 0.00882055 9.99776C0.00701964 9.80112 0.0825274 9.61163 0.219081 9.47011L8.90908 0.780113C9.11801 0.571178 9.36605 0.405442 9.63904 0.292367C9.91202 0.179293 10.2046 0.121094 10.5001 0.121094C10.7956 0.121094 11.0881 0.179293 11.3611 0.292367C11.6341 0.405442 11.8821 0.571178 12.0911 0.780113L20.7801 9.47011C20.8538 9.53878 20.9129 9.62158 20.9539 9.71358C20.9949 9.80557 21.0169 9.90489 21.0187 10.0056C21.0204 10.1063 21.0019 10.2063 20.9642 10.2997C20.9265 10.3931 20.8703 10.4779 20.7991 10.5492C20.7279 10.6204 20.6431 10.6765 20.5497 10.7142C20.4563 10.752 20.3563 10.7705 20.2556 10.7687C20.1549 10.7669 20.0555 10.7449 19.9635 10.7039C19.8715 10.6629 19.7887 10.6038 19.7201 10.5301L11.0301 1.84011C10.8895 1.69966 10.6988 1.62077 10.5001 1.62077ZM18.6591 11.5911L10.5001 3.43212V3.43011L2.34106 11.5911C2.31152 11.6206 2.28117 11.6493 2.25006 11.6771V17.8751C2.25006 18.3724 2.44761 18.8493 2.79924 19.2009C3.15087 19.5526 3.62778 19.7501 4.12506 19.7501H7.50006C7.69897 19.7501 7.88974 19.6711 8.03039 19.5304C8.17104 19.3898 8.25006 19.199 8.25006 19.0001V14.5001C8.25006 14.3012 8.32908 14.1104 8.46973 13.9698C8.61038 13.8291 8.80115 13.7501 9.00006 13.7501H12.0001C12.199 13.7501 12.3897 13.8291 12.5304 13.9698C12.671 14.1104 12.7501 14.3012 12.7501 14.5001V19.0001C12.7501 19.199 12.8291 19.3898 12.9697 19.5304C13.1104 19.6711 13.3011 19.7501 13.5001 19.7501H16.8751C17.9101 19.7501 18.7501 18.9101 18.7501 17.8751V11.6771C18.7191 11.6491 18.6891 11.6211 18.6591 11.5911Z" />
</svg>
