<svg width="22" height="21" viewBox="0 0 22 21" fill="none" xmlns="http://www.w3.org/2000/svg">
<path fill-rule="evenodd" clip-rule="evenodd" d="M11.0001 1.97929C10.8013 1.97929 10.6107 2.05818 10.4701 2.19863L1.78008 10.8886C1.63869 11.0253 1.44928 11.101 1.25263 11.0994C1.05598 11.0978 0.867831 11.019 0.728709 10.88C0.589587 10.741 0.510621 10.5529 0.508821 10.3563C0.50702 10.1596 0.582527 9.97015 0.719081 9.82863L9.40908 1.13863C9.61801 0.929699 9.86605 0.763963 10.139 0.650888C10.412 0.537813 10.7046 0.479614 11.0001 0.479614C11.2956 0.479614 11.5881 0.537813 11.8611 0.650888C12.1341 0.763963 12.3821 0.929699 12.5911 1.13863L21.2801 9.82863C21.3538 9.8973 21.4129 9.9801 21.4539 10.0721C21.4949 10.1641 21.5169 10.2634 21.5187 10.3641C21.5204 10.4648 21.5019 10.5648 21.4642 10.6582C21.4265 10.7516 21.3703 10.8365 21.2991 10.9077C21.2279 10.9789 21.1431 11.035 21.0497 11.0728C20.9563 11.1105 20.8563 11.129 20.7556 11.1272C20.6549 11.1254 20.5555 11.1034 20.4635 11.0624C20.3715 11.0214 20.2887 10.9623 20.2201 10.8886L11.5301 2.19863C11.3895 2.05818 11.1988 1.97929 11.0001 1.97929ZM19.1591 11.9496L11.0001 3.79064V3.78864L2.84106 11.9496C2.81152 11.9791 2.78117 12.0078 2.75006 12.0356V18.2336C2.75006 18.7309 2.94761 19.2078 3.29924 19.5595C3.65087 19.9111 4.12778 20.1086 4.62506 20.1086H8.00006C8.19897 20.1086 8.38974 20.0296 8.53039 19.889C8.67104 19.7483 8.75006 19.5575 8.75006 19.3586V14.8586C8.75006 14.6597 8.82908 14.469 8.96973 14.3283C9.11038 14.1877 9.30115 14.1086 9.50006 14.1086H12.5001C12.699 14.1086 12.8897 14.1877 13.0304 14.3283C13.171 14.469 13.2501 14.6597 13.2501 14.8586V19.3586C13.2501 19.5575 13.3291 19.7483 13.4697 19.889C13.6104 20.0296 13.8011 20.1086 14.0001 20.1086H17.3751C18.4101 20.1086 19.2501 19.2686 19.2501 18.2336V12.0356C19.2191 12.0076 19.1891 11.9796 19.1591 11.9496Z" fill="#0072DA"/>
</svg>
