<svg width="24" height="24" viewBox="0 0 24 24" fill="none" xmlns="http://www.w3.org/2000/svg">
<path fill="#81B9ED" fill-rule="evenodd" clip-rule="evenodd" d="M10.2337 2.576C10.2337 2.57608 10.2338 2.57593 10.2337 2.576L3.75 9.06046V18.8751C3.75 19.0819 3.91821 19.2501 4.125 19.2501H7.5V15.1251C7.5 14.0899 8.33979 13.2501 9.375 13.2501H11.625C12.6602 13.2501 13.5 14.0899 13.5 15.1251V19.2501H16.875C17.0818 19.2501 17.25 19.0819 17.25 18.8751V9.06073L10.7647 2.5754C10.619 2.4297 10.3813 2.42899 10.2337 2.576ZM18.53 8.21938L11.8253 1.51474C11.0931 0.782514 9.9067 0.783381 9.17427 1.51414L0.21964 10.4698C-0.0732366 10.7627 -0.07321 11.2376 0.2197 11.5304C0.512609 11.8233 0.987483 11.8233 1.28036 11.5304L2.25 10.5606V18.8751C2.25 19.9103 3.08979 20.7501 4.125 20.7501H16.875C17.9102 20.7501 18.75 19.9103 18.75 18.8751V10.5607L19.7197 11.5304C20.0126 11.8233 20.4874 11.8233 20.7803 11.5304C21.0732 11.2375 21.0732 10.7626 20.7803 10.4697L18.5307 8.2201C18.5305 8.21986 18.5302 8.21962 18.53 8.21938ZM12 19.2501H9V15.1251C9 14.9183 9.16821 14.7501 9.375 14.7501H11.625C11.8318 14.7501 12 14.9183 12 15.1251V19.2501Z" />
</svg>


