<svg width="20" height="20" viewBox="0 0 20 20" fill="none" xmlns="http://www.w3.org/2000/svg">
<path fill-rule="evenodd" clip-rule="evenodd" d="M0.731707 0C0.327597 0 0 0.327597 0 0.731707V6.58537C0 8.06711 1.20119 9.26829 2.68293 9.26829H8.53658C8.9407 9.26829 9.26829 8.9407 9.26829 8.53658V2.68293C9.26829 1.20119 8.06711 0 6.58537 0H0.731707ZM1.46341 6.58537V1.46341H6.58537C7.25888 1.46341 7.80488 2.00941 7.80488 2.68293V7.80488H2.68293C2.00941 7.80488 1.46341 7.25888 1.46341 6.58537Z" fill="#0072DA"/>
<path fill-rule="evenodd" clip-rule="evenodd" d="M15.3659 10.7317C12.8065 10.7317 10.7317 12.8065 10.7317 15.3659C10.7317 17.9252 12.8065 20 15.3659 20C17.9252 20 20 17.9252 20 15.3659C20 12.8065 17.9252 10.7317 15.3659 10.7317ZM12.1951 15.3659C12.1951 13.6147 13.6147 12.1951 15.3659 12.1951C17.117 12.1951 18.5366 13.6147 18.5366 15.3659C18.5366 17.117 17.117 18.5366 15.3659 18.5366C13.6147 18.5366 12.1951 17.117 12.1951 15.3659Z" fill="#0072DA"/>
<path fill-rule="evenodd" clip-rule="evenodd" d="M0 11.4634C0 11.0593 0.327597 10.7317 0.731707 10.7317H6.58537C8.06711 10.7317 9.26829 11.9329 9.26829 13.4146V19.2683C9.26829 19.6724 8.9407 20 8.53658 20H2.68293C1.20119 20 0 18.7988 0 17.3171V11.4634ZM1.46341 12.1951V17.3171C1.46341 17.9906 2.00941 18.5366 2.68293 18.5366H7.80488V13.4146C7.80488 12.7411 7.25888 12.1951 6.58537 12.1951H1.46341Z" fill="#0072DA"/>
<path fill-rule="evenodd" clip-rule="evenodd" d="M11.4634 0C11.0593 0 10.7317 0.327597 10.7317 0.731707V6.58537C10.7317 8.06711 11.9329 9.26829 13.4146 9.26829H19.2683C19.6724 9.26829 20 8.9407 20 8.53658V2.68293C20 1.20119 18.7988 0 17.3171 0H11.4634ZM12.1951 6.58537V1.46341H17.3171C17.9906 1.46341 18.5366 2.00941 18.5366 2.68293V7.80488H13.4146C12.7411 7.80488 12.1951 7.25888 12.1951 6.58537Z" fill="#0072DA"/>
</svg>
