<svg width="163" height="162" viewBox="0 0 163 162" fill="none" xmlns="http://www.w3.org/2000/svg">
<path d="M141.549 39.5862C122.356 25.7573 101.532 13.9827 79.6675 4.61128C62.6911 -2.66565 43.2304 -1.26934 27.6298 8.37058C12.1894 17.8897 2.98666 34.0009 3.00001 51.4414V109.684C2.98666 127.138 12.1894 143.235 27.6298 152.754C36.6188 158.299 46.8902 161.119 57.2282 161.119C64.8282 161.119 72.4816 159.588 79.6675 156.514C101.546 147.142 122.356 135.368 141.549 121.539C155.173 111.724 162.987 96.808 163 80.5222C162.987 64.3304 155.16 49.4006 141.549 39.5862Z" fill="#0072DA"/>
<path d="M6.35897 123.294C2.89852 114.354 1 104.621 1 94.4564C1 87.2231 1.96124 80.2301 3.76356 73.5735" stroke="white" stroke-width="0.293169" stroke-dasharray="3.77 3.77"/>
<path d="M94.4087 117.791L86.8149 121.612L61.8227 71.7954C63.1364 71.3468 64.4422 70.7941 65.7398 70.1373C67.0215 69.4965 68.239 68.7835 69.3925 67.9985L94.4087 117.791Z" fill="black"/>
<path d="M98.1094 125.457L90.7319 129.182C89.0257 130.023 86.935 129.326 86.0939 127.62L64.8746 85.3491L78.428 78.5483L99.6473 120.819C100.512 122.525 99.8156 124.616 98.1094 125.457Z" fill="black"/>
<path d="M84.4839 90.5878L70.9064 97.3886L64.8746 85.3491L78.428 78.5483L84.4839 90.5878Z" fill="white"/>
<g style="mix-blend-mode:multiply">
<path d="M69.032 68.2388C68.0708 71.8434 66.8452 75.4 65.3313 78.8124L61.8227 71.7953C63.1364 71.3468 64.4422 70.7941 65.7398 70.1372C66.8933 69.5605 67.9907 68.9277 69.032 68.2388Z" fill="#BEC4C8"/>
</g>
<path opacity="0.6" d="M76.2172 28.7558C83.1381 42.5496 77.587 59.3472 63.7932 66.2681C49.9995 73.189 33.2018 67.6139 26.2809 53.8201C19.36 40.0263 24.9351 23.2287 38.7289 16.3078C52.5227 9.38688 69.2963 14.962 76.2172 28.7558Z" fill="#A4BBD3"/>
<path fill-rule="evenodd" clip-rule="evenodd" d="M65.7396 70.1373C49.8071 78.1396 30.39 71.6993 22.3877 55.7668C14.4094 39.8343 20.8498 20.4413 36.7823 12.439C52.7148 4.43666 72.1078 10.877 80.1101 26.8095C88.1124 42.742 81.6721 62.159 65.7396 70.1373ZM76.217 28.756C69.2961 14.9622 52.5225 9.38706 38.7287 16.308C24.935 23.2289 19.3598 40.0265 26.2807 53.8203C33.2017 67.6141 49.9993 73.1892 63.7931 66.2683C77.5869 59.3474 83.1379 42.5498 76.217 28.756Z" fill="white"/>
<path opacity="0.3" d="M41.5404 21.9312C52.2342 16.5723 65.2589 20.8738 70.6179 31.5676" stroke="white" stroke-width="2.47099" stroke-linecap="round"/>
<g style="mix-blend-mode:multiply">
<path d="M63.7932 66.2683C49.9995 73.1892 33.2018 67.614 26.2809 53.8203C22.9166 47.1156 22.508 39.7141 24.5506 33.0815C28.756 42.4776 34.115 51.3451 42.5018 57.0645C49.8312 62.0389 58.8428 64.0815 67.7102 63.8652C66.4847 64.7543 65.187 65.5714 63.7932 66.2683Z" fill="#BEC4C8"/>
</g>
<path d="M49.5185 104.622C49.5185 106.857 47.7162 108.635 45.5053 108.635C43.2945 108.635 41.4921 106.857 41.4921 104.622C41.4921 102.411 43.2945 100.609 45.5053 100.609C47.7162 100.609 49.5185 102.411 49.5185 104.622Z" stroke="#0072DA" stroke-width="0.293169"/>
<path d="M110.02 29.6564C110.02 33.4598 106.952 36.5419 103.102 36.5419C99.3162 36.5419 96.2488 33.4598 96.2488 29.6564C96.2488 25.8531 99.3162 22.771 103.102 22.771C106.952 22.771 110.02 25.8531 110.02 29.6564Z" fill="#0072DA"/>
<path d="M76.145 53.892H26.8574V29.6448H76.145V53.892Z" fill="#EEECEC"/>
<path d="M66.7009 42.093C66.7009 50.3596 60.0203 57.0403 51.7536 57.0403C43.511 57.0403 36.8304 50.3596 36.8304 42.093C36.8304 33.8504 43.511 27.1458 51.7536 27.1458C60.0203 27.1458 66.7009 33.8504 66.7009 42.093Z" fill="#81B9ED"/>
<path d="M58.0497 42.0931C58.0497 45.5536 55.2381 48.3652 51.7776 48.3652C48.2931 48.3652 45.4814 45.5536 45.4814 42.0931C45.4814 38.6327 48.2931 35.821 51.7776 35.821C55.2381 35.821 58.0497 38.6327 58.0497 42.0931Z" fill="black"/>
<path d="M57.1363 37.2627C57.1363 38.2479 56.3433 39.041 55.3581 39.041C54.3968 39.041 53.6039 38.2479 53.6039 37.2627C53.6039 36.3014 54.3968 35.4844 55.3581 35.4844C56.3433 35.4844 57.1363 36.3014 57.1363 37.2627Z" fill="#EEECEC"/>
</svg>
