<svg width="25" height="27" viewBox="0 0 25 27" fill="none" xmlns="http://www.w3.org/2000/svg">
<path fill-rule="evenodd" clip-rule="evenodd" d="M8.14036 8.01283C8.13982 7.35574 7.81996 6.74987 7.26377 6.35158C6.47941 5.79039 5.62847 5.31255 4.73495 4.93224C4.0412 4.63693 3.24593 4.6936 2.6084 5.0848C1.97743 5.4711 1.60135 6.12492 1.6019 6.83268V9.19625C1.60135 9.90456 1.97743 10.5578 2.6084 10.9441C2.97575 11.1692 3.39549 11.2836 3.81796 11.2836C4.12853 11.2836 4.44129 11.2215 4.73495 11.0967C5.62901 10.7164 6.47941 10.2385 7.26377 9.67735C7.82051 9.27907 8.13982 8.67374 8.14036 8.01283ZM3.58905 6.68291C3.70324 6.61284 3.85892 6.59715 4.00057 6.65745C4.76851 6.9843 5.49963 7.39494 6.17212 7.87603C6.22136 7.91129 6.24296 7.94281 6.25218 7.96028C6.2608 7.97661 6.26514 7.99248 6.26535 8.0129C6.26512 8.03716 6.25998 8.05405 6.25179 8.06958C6.24302 8.08623 6.22198 8.11723 6.17273 8.15247C5.50002 8.63378 4.76963 9.0443 4.00172 9.371C3.94256 9.39614 3.87942 9.40857 3.81796 9.40857C3.733 9.40857 3.65309 9.38525 3.58742 9.34502C3.53297 9.31168 3.50594 9.27742 3.49322 9.25534C3.48091 9.23396 3.47689 9.21584 3.4769 9.19769V6.83124C3.47689 6.81353 3.48083 6.79532 3.49331 6.77364C3.50618 6.7513 3.53328 6.71706 3.58742 6.68391L3.58905 6.68291Z" fill="#0072DA"/>
<path fill-rule="evenodd" clip-rule="evenodd" d="M15.8848 3.26772C15.8843 2.61063 15.5644 2.00476 15.0082 1.60647C14.2239 1.04528 13.3729 0.567439 12.4794 0.187133C11.7857 -0.108176 10.9904 -0.0515116 10.3529 0.339691C9.72188 0.725991 9.34581 1.37981 9.34636 2.08758V4.45114C9.34581 5.15945 9.72188 5.81272 10.3529 6.19902C10.7202 6.42404 11.1399 6.53846 11.5624 6.53846C11.873 6.53846 12.1857 6.47635 12.4794 6.35158C13.3735 5.97127 14.2239 5.49344 15.0082 4.93224C15.565 4.53396 15.8843 3.92863 15.8848 3.26772ZM11.3335 1.93781C11.4477 1.86774 11.6034 1.85204 11.745 1.91234C12.513 2.23919 13.2441 2.64983 13.9166 3.13092C13.9658 3.16618 13.9874 3.1977 13.9966 3.21517C14.0053 3.2315 14.0096 3.24737 14.0098 3.26779C14.0096 3.29205 14.0044 3.30894 13.9962 3.32448C13.9875 3.34112 13.9664 3.37213 13.9172 3.40736C13.2445 3.88867 12.5141 4.29919 11.7462 4.62589C11.687 4.65103 11.6239 4.66346 11.5624 4.66346C11.4775 4.66346 11.3975 4.64014 11.3319 4.59991C11.2774 4.56657 11.2504 4.53231 11.2377 4.51023C11.2254 4.48885 11.2213 4.47073 11.2214 4.45258V2.08613C11.2213 2.06842 11.2253 2.05022 11.2378 2.02853C11.2506 2.00619 11.2777 1.97195 11.3319 1.9388L11.3335 1.93781Z" fill="#0072DA"/>
<path fill-rule="evenodd" clip-rule="evenodd" d="M8.40886 9.8077C8.40886 8.68809 9.31648 7.78046 10.4361 7.78046H14.7951C15.9147 7.78046 16.8223 8.68809 16.8223 9.8077C16.8223 9.85207 16.8192 9.89638 16.8129 9.9403L15.4005 19.8262C15.2069 21.1811 14.0465 22.1875 12.6779 22.1875C11.322 22.1875 10.1684 21.1994 9.96018 19.8597L8.41999 9.95171C8.41258 9.90407 8.40886 9.85592 8.40886 9.8077ZM10.289 9.76833L11.8129 19.5717C11.8792 19.9981 12.2463 20.3125 12.6779 20.3125C13.1134 20.3125 13.4828 19.9922 13.5444 19.561L14.943 9.77146C14.9267 9.70488 14.8667 9.65546 14.7951 9.65546H10.4361C10.3656 9.65546 10.3063 9.70334 10.289 9.76833Z" fill="#0072DA"/>
<path fill-rule="evenodd" clip-rule="evenodd" d="M3.55697 12.5576C2.44386 12.5576 1.60364 13.4735 1.57838 14.533L0.788925 23.1827C0.605155 25.1962 2.19035 26.9326 4.2122 26.9326H4.98507C7.00691 26.9326 8.59211 25.1962 8.40834 23.1827L7.61888 14.533C7.59362 13.4735 6.7534 12.5576 5.6403 12.5576H3.55697ZM3.4528 14.5821C3.4528 14.5277 3.47317 14.4873 3.49726 14.4621C3.52068 14.4377 3.54136 14.4326 3.55697 14.4326H5.6403C5.65591 14.4326 5.67658 14.4377 5.7 14.4621C5.72409 14.4873 5.74447 14.5277 5.74447 14.5821C5.74447 14.6105 5.74576 14.639 5.74835 14.6673L6.5411 23.3531C6.62463 24.2683 5.90409 25.0576 4.98507 25.0576H4.2122C3.29317 25.0576 2.57263 24.2683 2.65616 23.3531L3.44892 14.6673C3.4515 14.639 3.4528 14.6105 3.4528 14.5821Z" fill="#0072DA"/>
<path fill-rule="evenodd" clip-rule="evenodd" d="M24.1738 8.01283C24.1732 7.35574 23.8534 6.74987 23.2972 6.35158C22.5128 5.79038 21.6619 5.31255 20.7684 4.93224C20.0746 4.63693 19.2794 4.6936 18.6418 5.0848C18.0109 5.4711 17.6348 6.12492 17.6353 6.83268V9.19625C17.6348 9.90455 18.0109 10.5578 18.6418 10.9441C19.0092 11.1692 19.4289 11.2836 19.8514 11.2836C20.162 11.2836 20.4747 11.2215 20.7684 11.0967C21.6624 10.7164 22.5128 10.2385 23.2972 9.67735C23.8539 9.27906 24.1732 8.67373 24.1738 8.01283ZM19.6225 6.68291C19.7367 6.61284 19.8923 6.59715 20.034 6.65744C20.8019 6.9843 21.5331 7.39494 22.2056 7.87603C22.2548 7.91129 22.2764 7.9428 22.2856 7.96028C22.2942 7.97661 22.2986 7.99248 22.2988 8.01289C22.2985 8.03716 22.2934 8.05404 22.2852 8.06958C22.2765 8.08622 22.2554 8.11723 22.2062 8.15247C21.5335 8.63378 20.8031 9.04429 20.0351 9.371C19.976 9.39613 19.9128 9.40857 19.8514 9.40857C19.7664 9.40857 19.6865 9.38525 19.6208 9.34502C19.5664 9.31168 19.5394 9.27742 19.5266 9.25533C19.5143 9.23396 19.5103 9.21584 19.5103 9.19769V6.83124C19.5103 6.81353 19.5143 6.79532 19.5267 6.77364C19.5396 6.75129 19.5667 6.71706 19.6208 6.68391L19.6225 6.68291Z" fill="#0072DA"/>
<path fill-rule="evenodd" clip-rule="evenodd" d="M19.5904 12.5576C18.4773 12.5576 17.6371 13.4735 17.6118 14.533L16.8223 23.1827C16.6386 25.1961 18.2238 26.9326 20.2456 26.9326H21.0185C23.0403 26.9326 24.6255 25.1961 24.4418 23.1827L23.6523 14.533C23.6271 13.4735 22.7868 12.5576 21.6737 12.5576H19.5904ZM19.4862 14.5821C19.4862 14.5277 19.5066 14.4873 19.5307 14.4621C19.5541 14.4377 19.5748 14.4326 19.5904 14.4326H21.6737C21.6893 14.4326 21.71 14.4377 21.7334 14.4621C21.7575 14.4873 21.7779 14.5277 21.7779 14.5821C21.7779 14.6105 21.7792 14.6389 21.7818 14.6673L22.5745 23.3531C22.6581 24.2683 21.9375 25.0576 21.0185 25.0576H20.2456C19.3266 25.0576 18.6061 24.2683 18.6896 23.3531L19.4823 14.6673C19.4849 14.6389 19.4862 14.6105 19.4862 14.5821Z" fill="#0072DA"/>
</svg>
