<svg width="17" height="17" viewBox="0 0 17 17" fill="none" xmlns="http://www.w3.org/2000/svg">
<path fill-rule="evenodd" clip-rule="evenodd" d="M10.2291 0.238749C10.0438 0.0534795 9.78079 -0.0314344 9.52216 0.0105349C9.26354 0.0525043 9.04085 0.21624 8.92368 0.450589L7.44585 3.40624L6.20332 4.64877C4.61109 4.04622 3.17164 4.32523 2.12706 4.77291C1.55014 5.02016 1.08642 5.3206 0.76655 5.5588C0.605823 5.67849 0.479177 5.78414 0.390364 5.86219C0.345899 5.90126 0.310739 5.93358 0.285352 5.95746C0.272653 5.96941 0.262382 5.97927 0.254599 5.98682L0.244788 5.99642L0.241291 5.99987L0.239895 6.00126C0.239895 6.00126 0.238739 6.00242 0.815105 6.57878L0.238739 6.00242C-0.0795794 6.32073 -0.0795797 6.83683 0.238739 7.15515L4.46543 11.3818L1.19935 14.6479C0.881032 14.9662 0.881031 15.4823 1.19935 15.8007C1.51767 16.119 2.03377 16.119 2.35208 15.8007L5.61816 12.5346L9.84485 16.7613C10.1632 17.0796 10.6793 17.0796 10.9976 16.7613L10.4212 16.1849C10.9976 16.7613 10.9976 16.7613 10.9976 16.7613L10.9987 16.7601L11.0001 16.7587L11.0036 16.7552L11.0132 16.7454C11.0207 16.7376 11.0306 16.7273 11.0425 16.7146C11.0664 16.6893 11.0987 16.6541 11.1378 16.6096C11.2159 16.5208 11.3215 16.3942 11.4412 16.2334C11.6794 15.9136 11.9798 15.4499 12.2271 14.8729C12.6748 13.8284 12.9538 12.3889 12.3512 10.7967L13.5938 9.55415L16.5494 8.07632C16.7838 7.95915 16.9475 7.73646 16.9895 7.47784C17.0314 7.21921 16.9465 6.95617 16.7613 6.7709L10.2291 0.238749ZM2.76923 6.27131C2.49294 6.38972 2.24897 6.52569 2.04503 6.65597L10.344 14.955C10.4743 14.751 10.6103 14.5071 10.7287 14.2308C11.0947 13.3767 11.2857 12.2437 10.6528 10.9779C10.4959 10.6641 10.5574 10.2851 10.8055 10.037L12.5346 8.30788C12.5965 8.24593 12.668 8.19438 12.7464 8.1552L14.8089 7.12397L9.87603 2.19115L8.8448 4.2536C8.80562 4.33196 8.75407 4.40349 8.69212 4.46544L6.96302 6.19454C6.71493 6.44262 6.33593 6.50413 6.02212 6.34722C4.75632 5.71432 3.62334 5.90526 2.76923 6.27131Z" fill="#0072DA"/>
</svg>
