<svg width="14" height="16" viewBox="0 0 14 16" fill="none" xmlns="http://www.w3.org/2000/svg">
<path d="M2.75 0C2.50892 0 2.28253 0.115891 2.14157 0.311467C2.0006 0.507044 1.96225 0.75846 2.03849 0.987171L3 3.87171V5.48856C1.57202 6.13247 0.817005 7.25055 0.428642 8.22146C0.214151 8.75768 0.107915 9.25487 0.0547792 9.61796C0.0280797 9.80041 0.0144195 9.95155 0.00741541 10.0601C0.00390863 10.1145 0.00205642 10.1584 0.00108004 10.1904C0.000591636 10.2065 0.000321686 10.2196 0.000173867 10.2295L3.14713e-05 10.2422L6.3777e-06 10.2467L0 10.2485C0 10.2485 0 10.25 0.75 10.25H0C0 10.6642 0.335786 11 0.75 11H6.25V15.25C6.25 15.6642 6.58579 16 7 16C7.41421 16 7.75 15.6642 7.75 15.25V11H13.25C13.6642 11 14 10.6642 14 10.25L14 10.2485L14 10.2467L14 10.2422L13.9998 10.2295C13.9997 10.2196 13.9994 10.2065 13.9989 10.1904C13.9979 10.1584 13.9961 10.1145 13.9926 10.0601C13.9856 9.95155 13.9719 9.80041 13.9452 9.61796C13.8921 9.25487 13.7858 8.75768 13.5714 8.22146C13.183 7.25055 12.428 6.13247 11 5.48856V3.87171L11.9615 0.987171C12.0377 0.75846 11.9994 0.507044 11.8584 0.311467C11.7175 0.115891 11.4911 0 11.25 0H2.75Z" fill="#0072DA"/>
</svg>
