<svg width="20" height="20" viewBox="0 0 20 20" fill="none" xmlns="http://www.w3.org/2000/svg">
<path fill-rule="evenodd" clip-rule="evenodd" d="M2.66547 2.66547C4.2127 1.11825 6.31119 0.249023 8.49931 0.249023C10.6874 0.249023 12.7859 1.11825 14.3331 2.66547C15.8804 4.2127 16.7496 6.31119 16.7496 8.49931C16.7496 10.436 16.0686 12.3025 14.8393 13.7787L19.5301 18.4695C19.823 18.7624 19.823 19.2372 19.5301 19.5301C19.2372 19.823 18.7624 19.823 18.4695 19.5301L13.7787 14.8393C12.3025 16.0686 10.436 16.7496 8.49931 16.7496C6.3112 16.7496 4.2127 15.8804 2.66547 14.3331C1.11825 12.7859 0.249023 10.6874 0.249023 8.49931C0.249023 6.31119 1.11825 4.2127 2.66547 2.66547ZM13.2725 13.2725C14.5384 12.0066 15.2496 10.2896 15.2496 8.49931C15.2496 6.70902 14.5384 4.99206 13.2725 3.72614C12.0066 2.46021 10.2896 1.74902 8.49931 1.74902C6.70902 1.74902 4.99206 2.46021 3.72614 3.72614C2.46021 4.99206 1.74902 6.70902 1.74902 8.49931C1.74902 10.2896 2.46021 12.0066 3.72614 13.2725C4.99206 14.5384 6.70902 15.2496 8.49931 15.2496C10.2896 15.2496 12.0066 14.5384 13.2725 13.2725Z" fill="#0072DA"/>
</svg>
