<svg width="17" height="16" viewBox="0 0 17 16" fill="none" xmlns="http://www.w3.org/2000/svg">
<path fill-rule="evenodd" clip-rule="evenodd" d="M13.4452 1.39458C13.2772 1.39458 13.1405 1.52909 13.1405 1.69446V14.2893C13.1405 14.3688 13.1726 14.4451 13.2298 14.5014C13.2869 14.5576 13.3644 14.5892 13.4452 14.5892H15.2733C15.4414 14.5892 15.578 14.4547 15.578 14.2893V1.69446C15.578 1.52909 15.4414 1.39458 15.2733 1.39458H13.4452ZM11.9218 1.69446C11.9218 0.866623 12.6041 0.195068 13.4452 0.195068H15.2733C16.1145 0.195068 16.7968 0.866623 16.7968 1.69446V14.2893C16.7968 15.1171 16.1145 15.7887 15.2733 15.7887H13.4452C13.0412 15.7887 12.6537 15.6307 12.368 15.3495C12.0823 15.0683 11.9218 14.687 11.9218 14.2893V1.69446ZM7.96085 4.99311C7.79283 4.99311 7.65616 5.12762 7.65616 5.29299V14.2893C7.65616 14.3688 7.68826 14.4451 7.7454 14.5014C7.80254 14.5576 7.88004 14.5892 7.96085 14.5892H9.78897C9.95698 14.5892 10.0937 14.4547 10.0937 14.2893V5.29299C10.0937 5.12762 9.95698 4.99311 9.78897 4.99311H7.96085ZM6.43741 5.29299C6.43741 4.46515 7.11974 3.7936 7.96085 3.7936H9.78897C10.6301 3.7936 11.3124 4.46515 11.3124 5.29299V14.2893C11.3124 15.1171 10.6301 15.7887 9.78897 15.7887H7.96085C7.55681 15.7887 7.16931 15.6307 6.88361 15.3495C6.59791 15.0683 6.43741 14.687 6.43741 14.2893V5.29299ZM2.47647 8.59164C2.30846 8.59164 2.17178 8.72615 2.17178 8.89152V14.2893C2.17178 14.3688 2.20388 14.4451 2.26102 14.5014C2.31816 14.5576 2.39566 14.5892 2.47647 14.5892H4.3046C4.47261 14.5892 4.60928 14.4547 4.60928 14.2893V8.89152C4.60928 8.72615 4.47261 8.59164 4.3046 8.59164H2.47647ZM0.953033 8.89152C0.953033 8.06368 1.63536 7.39213 2.47647 7.39213H4.3046C5.14571 7.39213 5.82803 8.06368 5.82803 8.89152V14.2893C5.82803 15.1171 5.14571 15.7887 4.3046 15.7887H2.47647C2.07243 15.7887 1.68494 15.6307 1.39924 15.3495C1.11354 15.0683 0.953033 14.687 0.953033 14.2893V8.89152Z"/>
</svg>
