<svg width="20" height="22" viewBox="0 0 20 22" fill="none" xmlns="http://www.w3.org/2000/svg">
<path fill-rule="evenodd" clip-rule="evenodd"  d="M7.30483 3.23438C7.30483 2.54402 7.86448 1.98438 8.55483 1.98438H11.3361C12.0264 1.98438 12.5861 2.54402 12.5861 3.23438V3.68446C10.705 3.5958 8.90843 3.6098 7.30483 3.68176V3.23438ZM5.80483 3.76886V3.23438C5.80483 1.71559 7.03605 0.484375 8.55483 0.484375H11.3361C12.8549 0.484375 14.0861 1.71559 14.0861 3.23438V3.77655C15.509 3.88468 16.9627 4.05578 18.403 4.30809C18.811 4.37956 19.0838 4.76826 19.0123 5.17626C18.9409 5.58426 18.5522 5.85706 18.1442 5.78559C18.0831 5.77489 18.0219 5.76433 17.9608 5.75393L16.9109 18.0838C16.7457 20.0245 15.1222 21.5157 13.1744 21.5157H6.88774C4.94848 21.5157 3.32912 20.0371 3.1532 18.1059L2.02517 5.72203C1.97249 5.73188 1.92163 5.74167 1.87262 5.75139C1.46633 5.83197 1.07163 5.56793 0.991037 5.16164C0.910449 4.75534 1.17449 4.36064 1.58079 4.28005C2.48828 4.10005 3.9674 3.90036 5.80483 3.76886ZM3.51087 5.49687C6.41276 5.13364 11.4236 4.86457 16.4744 5.53015L15.4163 17.9566C15.3172 19.121 14.3431 20.0157 13.1744 20.0157H6.88774C5.72418 20.0157 4.75256 19.1285 4.64701 17.9698L3.51087 5.49687ZM7.8977 7.97923C7.87759 7.5655 7.52589 7.24641 7.11217 7.26653C6.69844 7.28664 6.37936 7.63833 6.39947 8.05206L6.83697 17.0521C6.85708 17.4658 7.20877 17.7849 7.6225 17.7648C8.03622 17.7446 8.35531 17.393 8.3352 16.9792L7.8977 7.97923ZM12.771 7.26618C13.1849 7.28199 13.5076 7.63035 13.4918 8.04426L13.148 17.0443C13.1322 17.4582 12.7839 17.7809 12.37 17.7651C11.956 17.7493 11.6333 17.4009 11.6491 16.987L11.9929 7.98701C12.0087 7.5731 12.357 7.25037 12.771 7.26618Z" fill="#FF7474"/>
</svg>
